<svg width="24" height="24" viewBox="0 0 24 24" fill="none" xmlns="http://www.w3.org/2000/svg">
<path d="M16.8388 5.50094V3.76919C16.8388 3.53955 16.747 3.31931 16.5837 3.15693C16.4204 2.99455 16.1988 2.90332 15.9678 2.90332C15.7368 2.90332 15.5153 2.99455 15.352 3.15693C15.1886 3.31931 15.0969 3.53955 15.0969 3.76919V5.50094H8.12913V3.76919C8.12913 3.53955 8.03736 3.31931 7.87403 3.15693C7.71069 2.99455 7.48915 2.90332 7.25816 2.90332C7.02716 2.90332 6.80563 2.99455 6.64229 3.15693C6.47895 3.31931 6.38719 3.53955 6.38719 3.76919V5.50094H2.90332V19.3549H20.3227V5.50094H16.8388ZM18.5807 17.6232H4.64526V7.23269H18.5807V17.6232ZM9.00009 9.83032H7.25816V11.5621H9.00009V9.83032ZM9.00009 13.2938H7.25816V15.0256H9.00009V13.2938ZM15.9678 9.83032H10.742V11.5621H15.9678V9.83032ZM15.9678 13.2938H10.742V15.0256H15.9678V13.2938Z" fill="white"/>
</svg>
