<?xml version="1.0" encoding="UTF-8"?>
<svg xmlns="http://www.w3.org/2000/svg" xmlns:xlink="http://www.w3.org/1999/xlink">
<symbol id="arrow-left" viewBox="0 0 18 28"><path fill="#fff" d="m0 14 14 14 3.5-3.5L7 14 17.5 3.5 14 0z"/></symbol>
<symbol id="arrow-right" viewBox="0 0 18 28"><path fill="#fff" d="m17.5 14-14 14L0 24.5 10.5 14 0 3.5 3.5 0z"/></symbol>
<symbol id="calendar" viewBox="0 0 24 24"><path fill="#fff" d="M16.839 5.5V3.77c0-.23-.092-.45-.255-.613a.874.874 0 0 0-1.487.612v1.732H8.129V3.769c0-.23-.092-.45-.255-.612a.874.874 0 0 0-1.487.612v1.732H2.903v13.854h17.42V5.5zm1.742 12.123H4.645V7.233h13.936zM9 9.83H7.257v1.732H9zm0 3.464H7.257v1.732H9zm6.967-3.464h-5.226v1.732h5.226zm0 3.464h-5.226v1.732h5.226z"/></symbol>
<symbol id="logo" viewBox="0 0 212 42"><g fill="#ff007b"><path d="M1 3.5h10v7H1zM11 3.5h10v7H11zM1 10.5h10v7H1zM21 10.5h10v7H21zM1 17.5h10v7H1zM11 17.5h10v7H11zM1 24.5h10v7H1zM21 24.5h10v7H21zM1 31.5h10v7H1zM21 31.5h10v7H21z"/></g><g fill="#ff007b"><path d="M37 3.5h10v7H37zM47 3.5h10v7H47zM57 3.5h10v7H57zM37 10.5h10v7H37zM37 17.5h10v7H37zM47 17.5h10v7H47zM37 24.5h10v7H37zM37 31.5h10v7H37zM47 31.5h10v7H47zM57 31.5h10v7H57z"/></g><g fill="#ff007b"><path d="M73 3.5h10v7H73zM83 3.5h10v7H83zM73 10.5h10v7H73zM93 10.5h10v7H93zM73 17.5h10v7H73zM93 17.5h10v7H93zM73 24.5h10v7H73zM93 24.5h10v7H93zM73 31.5h10v7H73zM83 31.5h10v7H83z"/></g><g fill="#fff"><path d="M109 3.5h10v7h-10zM119 3.5h10v7h-10zM109 10.5h10v7h-10zM129 10.5h10v7h-10zM109 17.5h10v7h-10zM119 17.5h10v7h-10zM109 24.5h10v7h-10zM129 24.5h10v7h-10zM109 31.5h10v7h-10zM119 31.5h10v7h-10z"/></g><g fill="#fff"><path d="M145 3.5h10v7h-10zM155 3.5h10v7h-10zM165 3.5h10v7h-10zM145 10.5h10v7h-10zM145 17.5h10v7h-10zM155 17.5h10v7h-10zM145 24.5h10v7h-10zM145 31.5h10v7h-10zM155 31.5h10v7h-10zM165 31.5h10v7h-10z"/></g><g fill="#fff"><path d="M181 3.5h10v7h-10zM191 3.5h10v7h-10zM201 3.5h10v7h-10zM191 10.5h10v7h-10zM191 17.5h10v7h-10zM191 24.5h10v7h-10zM191 31.5h10v7h-10z"/></g></symbol>
<symbol id="telegram" viewBox="0 0 26 23"><path fill="#fff" d="m.46 10.904 5.99 2.246 2.319 7.491a.704.704 0 0 0 1.12.34l3.34-2.736a.99.99 0 0 1 1.214-.034l6.023 4.393a.705.705 0 0 0 1.106-.429L25.985.855a.707.707 0 0 0-.946-.806L.452 9.577c-.607.235-.601 1.098.007 1.327m7.935 1.05L20.104 4.71c.21-.13.427.156.246.325l-9.663 9.023c-.34.317-.559.742-.62 1.204l-.33 2.45c-.043.327-.5.36-.59.043L7.88 13.287a1.19 1.19 0 0 1 .515-1.333"/></symbol>
</svg>