<svg width="212" height="42" viewBox="0 0 212 42" fill="none" xmlns="http://www.w3.org/2000/svg">
<g fill="#FF4800">
<rect x="1" y="3.5" width="10" height="7" />
<rect x="11" y="3.5" width="10" height="7" />
<rect x="1" y="10.5" width="10" height="7" />
<rect x="21" y="10.5" width="10" height="7" />
<rect x="1" y="17.5" width="10" height="7" />
<rect x="11" y="17.5" width="10" height="7" />
<rect x="1" y="24.5" width="10" height="7" />
<rect x="21" y="24.5" width="10" height="7" />
<rect x="1" y="31.5" width="10" height="7" />
<rect x="21" y="31.5" width="10" height="7" />
</g>
<g fill="#FF4800">
<rect x="37" y="3.5" width="10" height="7" />
<rect x="47" y="3.5" width="10" height="7" />
<rect x="57" y="3.5" width="10" height="7" />
<rect x="37" y="10.5" width="10" height="7" />
<rect x="37" y="17.5" width="10" height="7" />
<rect x="47" y="17.5" width="10" height="7" />
<rect x="37" y="24.5" width="10" height="7" />
<rect x="37" y="31.5" width="10" height="7" />
<rect x="47" y="31.5" width="10" height="7" />
<rect x="57" y="31.5" width="10" height="7" />
</g>
<g fill="#FF4800">
<rect x="73" y="3.5" width="10" height="7" />
<rect x="83" y="3.5" width="10" height="7" />
<rect x="73" y="10.5" width="10" height="7" />
<rect x="93" y="10.5" width="10" height="7" />
<rect x="73" y="17.5" width="10" height="7" />
<rect x="93" y="17.5" width="10" height="7" />
<rect x="73" y="24.5" width="10" height="7" />
<rect x="93" y="24.5" width="10" height="7" />
<rect x="73" y="31.5" width="10" height="7" />
<rect x="83" y="31.5" width="10" height="7" />
</g>
<g fill="#ffffff">
<rect x="109" y="3.5" width="10" height="7" />
<rect x="119" y="3.5" width="10" height="7" />
<rect x="109" y="10.5" width="10" height="7" />
<rect x="129" y="10.5" width="10" height="7" />
<rect x="109" y="17.5" width="10" height="7" />
<rect x="119" y="17.5" width="10" height="7" />
<rect x="109" y="24.5" width="10" height="7" />
<rect x="129" y="24.5" width="10" height="7" />
<rect x="109" y="31.5" width="10" height="7" />
<rect x="119" y="31.5" width="10" height="7" />
</g>
<g fill="#ffffff">
<rect x="145" y="3.5" width="10" height="7" />
<rect x="155" y="3.5" width="10" height="7" />
<rect x="165" y="3.5" width="10" height="7" />
<rect x="145" y="10.5" width="10" height="7" />
<rect x="145" y="17.5" width="10" height="7" />
<rect x="155" y="17.5" width="10" height="7" />
<rect x="145" y="24.5" width="10" height="7" />
<rect x="145" y="31.5" width="10" height="7" />
<rect x="155" y="31.5" width="10" height="7" />
<rect x="165" y="31.5" width="10" height="7" />
</g>
<g fill="#ffffff">
<rect x="181" y="3.5" width="10" height="7" />
<rect x="191" y="3.5" width="10" height="7" />
<rect x="201" y="3.5" width="10" height="7" />
<rect x="191" y="10.5" width="10" height="7" />
<rect x="191" y="17.5" width="10" height="7" />
<rect x="191" y="24.5" width="10" height="7" />
<rect x="191" y="31.5" width="10" height="7" />
</g>
</svg>
