<svg width="212" height="42" viewBox="0 0 212 42" fill="none" xmlns="http://www.w3.org/2000/svg">
<g clip-path="url(#clip0_105_1306)">
<path d="M89.9888 30.1445L87.804 41.7987H99.2374L101.418 30.1445H89.9888Z" fill="#FF4800"/>
<path d="M95.6231 0.0185547C95.6231 0.0185547 93.1076 13.5554 91.0166 24.7015H115.59C115.952 24.7016 116.309 24.7827 116.636 24.9392C116.963 25.0957 117.252 25.3236 117.482 25.6066C117.712 25.8897 117.878 26.2209 117.967 26.5765C118.056 26.9322 118.067 27.3035 117.999 27.6638L117.641 29.2425C117.508 29.9508 117.136 30.5898 116.589 31.0494C116.041 31.509 115.353 31.7604 114.643 31.7603L106.717 31.792L104.831 41.8131H120.058C122.385 41.8202 124.64 41.0016 126.435 39.4989C128.23 37.9963 129.451 35.904 129.888 33.5839C130.218 31.8329 130.585 30.0092 130.911 28.2717C131.702 24.0936 128.346 20.9589 124.155 20.9589L124.419 19.598C128.762 19.4438 131.818 17.1982 132.64 12.8386L133.23 9.51794C133.447 8.36489 133.412 7.17733 133.125 6.03987C132.839 4.90241 132.309 3.84303 131.574 2.93721C130.838 2.03139 129.915 1.30142 128.87 0.799286C127.825 0.297156 126.683 0.0352276 125.527 0.0321636L95.6231 0.0185547ZM119.348 12.3623L119.223 13.2424C119.073 14.0384 118.655 14.7565 118.04 15.2732C117.425 15.7899 116.652 16.0727 115.854 16.0731H105.774L106.958 9.76291H117.234C117.551 9.76325 117.863 9.83438 118.149 9.97124C118.435 10.1081 118.687 10.3073 118.889 10.5547C119.09 10.8021 119.235 11.0915 119.314 11.4024C119.392 11.7133 119.403 12.0379 119.343 12.3532" fill="white"/>
<path d="M176.077 0.0224609L174.053 10.5925H184.884L178.986 41.7807H192.287L198.202 10.5925H209.051L211.034 0.0224609H176.077Z" fill="white"/>
<path d="M59.8168 18.0374C60.6166 13.7278 63.3912 10.6112 68.65 10.6112L88.4295 10.6339L90.4044 0.0185547H65.2409C56.4703 0.0185547 50.0499 3.47081 47.2753 15.066C46.346 18.9493 45.7294 23.2317 44.9877 27.1421C44.6502 28.9191 44.7018 30.7498 45.1388 32.5043C45.5758 34.2588 46.3876 35.8942 47.5166 37.2946C48.6455 38.695 50.0641 39.8261 51.6717 40.6078C53.2793 41.3894 55.0365 41.8025 56.8188 41.8176H82.6034L87.5181 16.0913H66.6528L64.9773 24.7106H73.5468L72.3226 31.0889H63.9586C58.3201 31.0889 57.918 27.9133 58.5569 24.4702L59.8168 18.0374Z" fill="#FF4800"/>
<path d="M15.0615 18.0374C15.8657 13.7278 18.6358 10.6112 23.8946 10.6112L43.6742 10.6339L45.649 0.0185547H20.4856C11.715 0.0185547 5.29453 3.47081 2.51994 15.066C1.59508 18.9493 0.974034 23.2317 0.232355 27.1421C-0.105185 28.9191 -0.0536173 30.7498 0.383404 32.5043C0.820426 34.2588 1.63221 35.8942 2.76119 37.2946C3.89018 38.695 5.30874 39.8261 6.91632 40.6078C8.52389 41.3894 10.2811 41.8025 12.0635 41.8176H37.848L42.7627 16.0913H21.8974L20.2219 24.7106H28.8138L27.5717 31.0707H19.1943C13.5558 31.0707 13.1537 27.8952 13.7926 24.452L15.0615 18.0374Z" fill="#FF4800"/>
<path d="M138.698 5.33962L132.935 36.4734C132.815 37.1177 132.837 37.7808 132.999 38.4154C133.16 39.0501 133.458 39.6408 133.87 40.1455C134.282 40.6501 134.799 41.0563 135.383 41.3351C135.967 41.6139 136.605 41.7585 137.251 41.7585H167.695L169.661 31.3246H146.808L148.081 24.6378H164.684L166.284 16.0638H149.712L150.753 10.5974H170.546L172.566 0.0410167H145.016C143.518 0.040153 142.066 0.571084 140.912 1.54197C139.759 2.51285 138.976 3.86261 138.698 5.35776" fill="white"/>
</g>
<defs>
<clipPath id="clip0_105_1306">
<rect width="211.034" height="41.7991" fill="white"/>
</clipPath>
</defs>
</svg>
