<svg width="26" height="23" viewBox="0 0 26 23" fill="none" xmlns="http://www.w3.org/2000/svg">
<path d="M0.459237 10.9039L6.45017 13.15L8.76902 20.6414C8.91739 21.1211 9.50144 21.2985 9.8891 20.9801L13.2285 18.2454C13.5786 17.9588 14.0772 17.9446 14.443 18.2113L20.4662 22.6041C20.8809 22.9069 21.4684 22.6787 21.5724 22.1753L25.9847 0.854889C26.0982 0.305014 25.5604 -0.153709 25.0391 0.0487943L0.452217 9.57681C-0.154537 9.81187 -0.14925 10.6748 0.459237 10.9039ZM8.39531 11.9543L20.1038 4.71029C20.3142 4.58048 20.5307 4.8663 20.35 5.03467L10.6871 14.0576C10.3475 14.3752 10.1284 14.8003 10.0663 15.2616L9.73718 17.712C9.69358 18.0392 9.23607 18.0717 9.14619 17.755L7.88025 13.2866C7.73526 12.777 7.94655 12.2326 8.39531 11.9543Z" fill="white"/>
</svg>
